<svg width="29" height="25" viewBox="0 0 29 25" fill="none" xmlns="http://www.w3.org/2000/svg">
<path d="M2.67857 0C1.21429 0 0 1.21429 0 2.67857V22.3214C0 23.7857 1.21429 25 2.67857 25H25.8929C27.3571 25 28.5714 23.7857 28.5714 22.3214V2.67857C28.5714 1.21429 27.3571 0 25.8929 0H2.67857ZM3.57143 3.57143H7.14286V7.14286H3.57143V3.57143ZM10.7143 3.57143H25V7.14286H10.7143V3.57143ZM3.57143 10.7143H7.14286V14.2857H3.57143V10.7143ZM10.7143 10.7143H25V14.2857H10.7143V10.7143ZM3.57143 17.8571H7.14286V21.4286H3.57143V17.8571ZM10.7143 17.8571H25V21.4286H10.7143V17.8571Z" fill="#808080"/>
</svg>
